<?xml version="1.0" encoding="UTF-8"?>
<svg version="1.1" xmlns="http://www.w3.org/2000/svg" width="1024" height="1024">
<path d="M0 0 C337.92 0 675.84 0 1024 0 C1024 337.92 1024 675.84 1024 1024 C686.08 1024 348.16 1024 0 1024 C0 686.08 0 348.16 0 0 Z " fill="#14082C" transform="translate(0,0)"/>
<path d="M0 0 C15.44740709 -0.91213261 33.23548673 5.98872557 44.86328125 16.00390625 C45.94540663 17.04641148 47.01046733 18.10717406 48.05078125 19.19140625 C48.61152344 19.71089844 49.17226563 20.23039062 49.75 20.765625 C51.05078125 22.19140625 51.05078125 22.19140625 51.05078125 24.19140625 C51.71078125 24.19140625 52.37078125 24.19140625 53.05078125 24.19140625 C63.24201732 41.66709971 69.81461701 61.10871596 65.2109375 81.44921875 C64.12175073 85.48771602 62.671466 89.33918612 61.05078125 93.19140625 C60.7986084 93.80935059 60.54643555 94.42729492 60.28662109 95.06396484 C53.46937904 111.1655204 39.34322713 125.58009546 24.61328125 134.81640625 C23.74832031 135.36554688 22.88335937 135.9146875 21.9921875 136.48046875 C0.91183785 148.74234544 -23.55469529 154.16782379 -47.80859375 153.26953125 C-50.00122473 153.18950822 -52.19313256 153.14351519 -54.38671875 153.09765625 C-73.42171218 152.55009092 -91.93803626 150.09726061 -108.94921875 141.19140625 C-108.38018951 137.73230744 -107.36971608 136.29930108 -104.69921875 134.06640625 C-103.97863281 133.45667969 -103.25804687 132.84695313 -102.515625 132.21875 C-100.68261535 130.77075608 -98.81026622 129.37200539 -96.9140625 128.0078125 C-76.65589481 113.42804744 -66.53463665 92.29136123 -62.29296875 68.0078125 C-61.91024009 64.87204696 -61.84871773 61.78624433 -61.76171875 58.62890625 C-60.75822865 42.88449262 -52.63163431 27.64409385 -40.94921875 17.19140625 C-40.43230469 16.72863281 -39.91539062 16.26585937 -39.3828125 15.7890625 C-35.24700268 12.19140625 -35.24700268 12.19140625 -32.94921875 12.19140625 C-32.61921875 11.20140625 -32.28921875 10.21140625 -31.94921875 9.19140625 C-22.6905005 2.51651635 -11.0557852 1.08563823 0 0 Z " fill="#FE8D00" transform="translate(264.94921875,450.80859375)"/>
<path d="M0 0 C13.2 0 26.4 0 40 0 C42.54844251 5.09688502 44.69437248 9.55008086 46.55078125 14.82421875 C46.77027435 15.4440564 46.98976746 16.06389404 47.21591187 16.70251465 C47.91997659 18.69572203 48.61635657 20.69151388 49.3125 22.6875 C49.80348385 24.08189576 50.29477924 25.47618187 50.78637695 26.87036133 C53.50919488 34.61446668 56.13991594 42.38383194 58.6875 50.1875 C61.33297995 58.25234618 64.35582945 66.1032473 67.55859375 73.9609375 C70.5092423 81.21604662 73.35482289 88.51203656 76.19796753 95.80978394 C76.80446255 97.36536369 77.41210312 98.92049742 78.02102661 100.47512817 C81.42716005 109.17168183 84.70345341 117.89443787 87.77658081 126.71434021 C90.42849164 134.29360618 93.32873132 141.77133282 96.25 149.25 C96.78408987 150.62360629 97.31794442 151.99730411 97.8515625 153.37109375 C100.42488115 160.05797272 100.42488115 160.05797272 103.15136719 166.68261719 C104.31334257 169.85565238 104.19305909 172.65364248 104 176 C101.98126554 178.01873446 97.90333657 177.21180162 95.1328125 177.23828125 C94.34228485 177.246353 93.5517572 177.25442474 92.73727417 177.26274109 C91.06103723 177.27659625 89.3847719 177.28731198 87.70849609 177.29516602 C85.14236087 177.31238352 82.57751233 177.35625483 80.01171875 177.40039062 C78.38542617 177.41051677 76.75912261 177.41903312 75.1328125 177.42578125 C73.97955978 177.45204338 73.97955978 177.45204338 72.80300903 177.47883606 C70.62939453 177.4699707 70.62939453 177.4699707 67 177 C59.71989011 167.29318681 57.83695481 154.51086443 54 143 C19.35 142.505 19.35 142.505 -16 142 C-16.99 145.96 -17.98 149.92 -19 154 C-19.81812645 156.63645497 -20.66685171 159.26386235 -21.5625 161.875 C-22.18318359 163.69644531 -22.18318359 163.69644531 -22.81640625 165.5546875 C-23.20699219 166.69164062 -23.59757813 167.82859375 -24 169 C-24.33902344 170.09570312 -24.67804687 171.19140625 -25.02734375 172.3203125 C-26 175 -26 175 -28 177 C-31.11694336 177.25878906 -31.11694336 177.25878906 -35.08984375 177.265625 C-36.14033653 177.26849518 -36.14033653 177.26849518 -37.21205139 177.27142334 C-38.69402424 177.27278493 -40.17600902 177.2690903 -41.65795898 177.26074219 C-43.92524085 177.25005777 -46.19172749 177.26062953 -48.45898438 177.2734375 C-49.89843925 177.27211559 -51.33789363 177.26955253 -52.77734375 177.265625 C-54.08952881 177.26336914 -55.40171387 177.26111328 -56.75366211 177.25878906 C-60 177 -60 177 -63 175 C-63.97397167 169.17857998 -61.40959108 163.92115772 -59.37890625 158.57421875 C-59.00362289 157.56246078 -58.62833954 156.55070282 -58.24168396 155.50828552 C-57.02412065 152.23132307 -55.79332656 148.95950097 -54.5625 145.6875 C-53.72355484 143.43577673 -52.88566546 141.18365982 -52.04882812 138.93115234 C-50.41898182 134.54541455 -48.78537185 130.16111115 -47.14892578 125.77783203 C-44.71406432 119.24509358 -42.33969744 112.69245422 -40 106.125 C-34.74603639 91.44185526 -29.33136324 76.81659231 -23.82421875 62.2265625 C-23.11192282 60.33856292 -22.39968332 58.45054206 -21.6875 56.5625 C-21.33405518 55.62656006 -20.98061035 54.69062012 -20.61645508 53.72631836 C-18.2512978 47.42940388 -15.95361839 41.11039108 -13.6875 34.77734375 C-13.39889603 33.97212784 -13.11029205 33.16691193 -12.8129425 32.33729553 C-11.37414005 28.32165435 -9.94078817 24.30420885 -8.51635742 20.28344727 C-7.98375458 18.79306239 -7.45096645 17.30274371 -6.91796875 15.8125 C-6.68283569 15.14254501 -6.44770264 14.47259003 -6.20544434 13.78233337 C-4.45479402 8.91037358 -2.35556007 4.71112014 0 0 Z " fill="#00ADA5" transform="translate(618,425)"/>
<path d="M0 0 C3.16908762 6.60226588 0.85524649 13.62997324 -1.3125 20.3125 C-8.26511146 38.55311571 -18.1350773 55.64258809 -28.5 72.125 C-28.90847168 72.77645996 -29.31694336 73.42791992 -29.73779297 74.09912109 C-32.27985304 78.13763917 -34.87601523 82.1392438 -37.5 86.125 C-37.89396973 86.72618652 -38.28793945 87.32737305 -38.69384766 87.94677734 C-45.83264356 98.82615517 -53.35038875 109.39844352 -60.984375 119.93359375 C-61.57758545 120.75303467 -62.1707959 121.57247559 -62.78198242 122.41674805 C-63.95239844 124.03267001 -65.12439078 125.64745163 -66.2980957 127.26098633 C-66.83007568 127.99470459 -67.36205566 128.72842285 -67.91015625 129.484375 C-68.38590088 130.13889648 -68.86164551 130.79341797 -69.35180664 131.46777344 C-70.56196946 133.13079084 -70.56196946 133.13079084 -71.5 135.125 C-72.16 135.125 -72.82 135.125 -73.5 135.125 C-73.83 136.445 -74.16 137.765 -74.5 139.125 C-75.16 139.125 -75.82 139.125 -76.5 139.125 C-76.7784375 140.115 -76.7784375 140.115 -77.0625 141.125 C-78.71072989 144.56478412 -80.76902177 146.82745132 -83.3203125 149.6328125 C-85.94962094 152.63908273 -88.37357998 155.77648925 -90.8125 158.9375 C-95.01717463 164.35907051 -99.44568889 169.46948477 -104.12109375 174.49609375 C-106.42848423 177.04596862 -108.55973804 179.67453202 -110.6875 182.375 C-116.22077237 189.24457249 -122.5340607 195.33518074 -128.83789062 201.49121094 C-130.33086775 202.95874955 -131.7998753 204.45057905 -133.265625 205.9453125 C-135.62550683 208.24743499 -137.48688705 209.89986379 -140.75 210.625 C-146.41226013 209.59549816 -150.12338101 204.64466402 -153.73046875 200.43359375 C-157.51636416 196.07088597 -161.46077751 191.87580605 -165.4375 187.6875 C-166.8443224 186.19324704 -168.25057867 184.69846085 -169.65625 183.203125 C-171.8525592 180.86821376 -174.05724381 178.54287991 -176.28125 176.234375 C-179.18316516 173.1432045 -181.22329609 170.88229492 -182.6875 166.875 C-182.331723 161.6569373 -178.8005018 158.15152973 -175.375 154.4375 C-174.5809375 153.56996094 -173.786875 152.70242188 -172.96875 151.80859375 C-171.74671875 150.48021484 -171.74671875 150.48021484 -170.5 149.125 C-168.95594789 147.41882241 -167.41422041 145.71053775 -165.875 144 C-165.12734375 143.16984375 -164.3796875 142.3396875 -163.609375 141.484375 C-161.76404078 139.42033451 -159.93955515 137.34105879 -158.125 135.25 C-154.67321821 131.28446465 -151.11481133 127.41913536 -147.55175781 123.55395508 C-144.94488568 120.72057392 -142.382489 117.85901625 -139.875 114.9375 C-137.41266892 112.08823117 -134.82006518 109.44251188 -132.125 106.8125 C-129.01838762 103.7525646 -126.24620776 100.62222578 -123.5625 97.1875 C-118.48218846 90.81680738 -112.6990071 85.19035688 -106.88305664 79.49438477 C-102.83678984 75.52110979 -99.08847833 71.5116054 -95.5 67.125 C-93.8439747 65.44775948 -92.1756893 63.78259493 -90.5 62.125 C-89.10878354 60.72571312 -87.71759047 59.32640276 -86.32707214 57.92642212 C-84.18032851 55.76609936 -82.03074655 53.60860912 -79.88110352 51.45117188 C-78.75649806 50.3215408 -77.63279218 49.1910134 -76.51000977 48.05957031 C-70.86865517 42.37601107 -65.2513505 36.73358711 -59.15258789 31.53466797 C-56.82782143 29.55162741 -54.60952544 27.45864109 -52.375 25.375 C-13.45439365 -10.09079524 -13.45439365 -10.09079524 0 0 Z " fill="#F42666" transform="translate(485.5,264.875)"/>
<path d="M0 0 C1.14178758 -0.00169662 1.14178758 -0.00169662 2.30664158 -0.00342751 C3.18012745 -0.01188698 4.05361332 -0.02034645 4.95356846 -0.02906227 C5.91414158 -0.02298958 6.8747147 -0.01691689 7.8643961 -0.01066017 C8.87424061 -0.01591713 9.88408512 -0.02117409 10.92453098 -0.02659035 C14.27581669 -0.03983654 17.62663062 -0.03103512 20.97792149 -0.02091408 C23.29958278 -0.02293364 25.62124345 -0.02584409 27.94290257 -0.02961159 C32.81458149 -0.03404134 37.68609566 -0.02758344 42.55775547 -0.01358986 C48.81049037 0.00349273 55.06283872 -0.00632943 61.31555939 -0.02430725 C66.11186745 -0.03513553 70.90808354 -0.03170294 75.70439434 -0.02392387 C78.01014406 -0.02191874 80.31590206 -0.02439208 82.62164211 -0.03136253 C85.84210876 -0.0389601 89.06194527 -0.0273957 92.28236485 -0.01066017 C93.72018818 -0.01976921 93.72018818 -0.01976921 95.18705845 -0.02906227 C96.06336414 -0.0206028 96.93966984 -0.01214333 97.84253025 -0.00342751 C98.98488337 -0.00173089 98.98488337 -0.00173089 100.15031433 0 C102.69821696 0.48390715 103.5863862 1.32953273 105.13807774 3.37752342 C105.51039219 6.25667381 105.51039219 6.25667381 105.50135899 9.72517967 C105.50039219 11.59206444 105.50039219 11.59206444 105.49940586 13.49666405 C105.48329258 14.79797264 105.4671793 16.09928123 105.45057774 17.44002342 C105.45380039 18.7451992 105.45702305 20.05037498 105.46034336 21.39510155 C105.404941 31.11066015 105.404941 31.11066015 103.13807774 33.37752342 C100.240098 33.61803246 100.240098 33.61803246 96.4852457 33.6045742 C95.80220371 33.60486626 95.11916172 33.60515831 94.41542149 33.60545921 C92.15357433 33.60406381 89.89205498 33.58849309 87.63026524 33.57283592 C86.06370823 33.56910653 84.49714889 33.56625921 82.93058872 33.56426048 C78.80412976 33.55661818 74.67781123 33.53696466 70.55140781 33.51485252 C65.60216264 33.4908132 60.65287055 33.48161595 55.70358372 33.46994591 C48.18165068 33.45054051 40.66002585 33.41222231 33.13807774 33.37752342 C33.13807774 47.89752342 33.13807774 62.41752342 33.13807774 77.37752342 C39.7084293 77.34271873 39.7084293 77.34271873 46.41151524 77.30721092 C49.898656 77.29435387 53.38579008 77.28350655 56.87294102 77.27402306 C60.55707123 77.26345075 64.2411098 77.24931702 67.92518711 77.22664452 C71.47187429 77.20495352 75.01847246 77.19296276 78.56522083 77.18776894 C79.92005026 77.18406642 81.27487468 77.17683653 82.62966633 77.16606331 C84.52353531 77.15159895 86.41749338 77.15070694 88.31141758 77.15047264 C89.3906348 77.14603142 90.46985203 77.14159019 91.5817728 77.13701439 C94.13807774 77.37752342 94.13807774 77.37752342 96.13807774 79.37752342 C96.38099766 82.25081444 96.38099766 82.25081444 96.36854649 85.88142967 C96.36661289 87.17887108 96.3646793 88.47631248 96.36268711 89.8130703 C96.3564835 90.48974754 96.35027988 91.16642479 96.34388828 91.86360741 C96.32561826 93.93542813 96.32337869 96.00680239 96.32362461 98.0786953 C96.27816031 108.23744085 96.27816031 108.23744085 95.13807774 109.37752342 C93.20501275 109.47148399 91.26848935 109.4949586 89.3331461 109.49104881 C88.09193501 109.49097328 86.85072392 109.49089775 85.57190037 109.49081993 C84.20724034 109.48571253 82.84258071 109.48049652 81.47792149 109.47517967 C80.0892959 109.47331543 78.70066966 109.47189155 77.31204319 109.47089195 C73.65086659 109.46706729 69.98972944 109.45723745 66.32856846 109.44618797 C62.59515511 109.43597274 58.8617354 109.43139409 55.12831211 109.42635155 C47.79821597 109.41561513 40.46815237 109.39853934 33.13807774 109.37752342 C33.14251896 110.19993523 33.14696018 111.02234703 33.15153599 111.8696804 C33.19156446 119.60974258 33.22203749 127.34975477 33.24170208 135.08989334 C33.2521516 139.06944115 33.26633196 143.04890363 33.28895664 147.02840233 C33.31064359 150.86686228 33.32263756 154.70524001 33.32783222 158.54375648 C33.33153547 160.0102283 33.33876673 161.47669547 33.34953785 162.9431324 C33.36399793 164.99281448 33.36605802 167.04215424 33.36512852 169.09187889 C33.36956974 170.25992058 33.37401096 171.42796227 33.37858677 172.63139915 C33.13807774 175.37752342 33.13807774 175.37752342 31.13807774 177.37752342 C28.65241231 177.57700899 26.28057024 177.65742085 23.79432774 177.64314842 C23.0694315 177.64506187 22.34453526 177.64697533 21.59767246 177.64894676 C20.06442512 177.65030829 18.53116624 177.64661406 16.99794102 177.63826561 C14.64725515 177.6275652 12.29733351 177.63816151 9.94667149 177.65096092 C8.45838854 177.64963932 6.97010608 177.64707691 5.48182774 177.64314842 C4.7765897 177.64719688 4.07135166 177.65124535 3.34474277 177.65541649 C-1.63199741 177.60744828 -1.63199741 177.60744828 -3.86192226 175.37752342 C-4.11360455 172.45361996 -4.11360455 172.45361996 -4.11588955 168.62741661 C-4.12056952 167.57447187 -4.12056952 167.57447187 -4.12534404 166.50025553 C-4.13335289 164.13642536 -4.12698927 161.77284986 -4.12071133 159.40901756 C-4.12341994 157.71902884 -4.12698013 156.0290413 -4.13133144 154.33905602 C-4.1404739 149.73991687 -4.13690339 145.14086713 -4.13057327 140.54172635 C-4.12552203 135.73580443 -4.13020236 130.92989034 -4.1333456 126.12396812 C-4.13698816 118.05100182 -4.13217893 109.97807207 -4.12266445 101.90511131 C-4.11178303 92.56429522 -4.11530205 83.22356645 -4.12631726 73.88275248 C-4.13538629 65.87253288 -4.13667719 57.8623396 -4.13143992 49.85211653 C-4.12831763 45.06382372 -4.12791791 40.27557199 -4.1345129 35.4872818 C-4.14028002 30.98524885 -4.13630112 26.48332871 -4.12472439 21.98130798 C-4.12207424 20.32647197 -4.12284892 18.67162649 -4.12724972 17.0167942 C-4.13269279 14.76260485 -4.12588631 12.50877985 -4.11588955 10.25461388 C-4.1151355 8.99158975 -4.11438145 7.72856562 -4.11360455 6.42726803 C-3.84739159 3.20144884 -3.55106575 0.72001421 0 0 Z " fill="#00ACA5" transform="translate(451.8619222640991,424.6224765777588)"/>
<path d="M0 0 C0.7027002 -0.00191345 1.40540039 -0.0038269 2.12939453 -0.00579834 C3.61556354 -0.00715975 5.10174445 -0.00346632 6.58789062 0.00488281 C8.86615646 0.01558346 11.14363377 0.00498661 13.421875 -0.0078125 C14.86458508 -0.0064909 16.30729466 -0.00392849 17.75 0 C19.06742188 0.00225586 20.38484375 0.00451172 21.7421875 0.00683594 C24.875 0.265625 24.875 0.265625 26.875 2.265625 C27.12109566 4.72938728 27.12109566 4.72938728 27.11550903 7.89700317 C27.11825836 9.09456238 27.12100769 10.29212158 27.12384033 11.52597046 C27.11676162 12.85992531 27.10949199 14.19387916 27.10205078 15.52783203 C27.10148687 16.92712394 27.10180283 18.32641644 27.10293579 19.72570801 C27.10351109 23.53130485 27.09172817 27.33677636 27.07778788 31.142344 C27.06531002 35.11685207 27.06411235 39.09136281 27.06173706 43.06588745 C27.05551361 50.59528329 27.03909113 58.12462126 27.01903808 65.65399158 C26.99670595 74.22460437 26.98569242 82.79521988 26.97564721 91.3658545 C26.95472562 108.99914418 26.91953289 126.63237994 26.875 144.265625 C27.78732895 144.26340439 28.6996579 144.26118378 29.63963318 144.25889587 C38.21883277 144.23889572 46.79802458 144.22365228 55.37724209 144.21381283 C59.78837004 144.20858431 64.1994788 144.20148723 68.6105957 144.19018555 C72.86401115 144.17935556 77.11740809 144.17334793 81.37083626 144.17074776 C82.99721633 144.16889371 84.62359534 144.16527348 86.24996758 144.15989494 C88.52010193 144.15268302 90.79015885 144.15163412 93.06030273 144.15209961 C94.35491928 144.149879 95.64953583 144.14765839 96.98338318 144.14537048 C99.875 144.265625 99.875 144.265625 100.875 145.265625 C101.09309756 149.52310926 101.06079161 153.78608224 101.06030273 158.04858398 C101.06248743 160.190795 101.08063512 162.33248971 101.09960938 164.47460938 C101.10254359 165.8307274 101.1045282 167.18684788 101.10546875 168.54296875 C101.10957764 169.78296631 101.11368652 171.02296387 101.11791992 172.30053711 C100.875 175.265625 100.875 175.265625 98.875 177.265625 C96.960639 177.51451397 96.960639 177.51451397 94.5790863 177.51286316 C93.67746765 177.51705765 92.775849 177.52125214 91.84690857 177.52557373 C90.85514114 177.51995422 89.86337372 177.51433472 88.84155273 177.50854492 C87.79923492 177.51044327 86.75691711 177.51234161 85.68301392 177.51429749 C82.22479826 177.51801355 78.76679086 177.50728987 75.30859375 177.49609375 C72.91488164 177.4949024 70.52116906 177.49444869 68.12745667 177.4947052 C63.10618166 177.49313894 58.08497781 177.48483783 53.0637207 177.47143555 C46.61136427 177.45443637 40.15908606 177.45062138 33.70670986 177.45138073 C28.76295722 177.45110946 23.81922185 177.44563541 18.87547493 177.43837929 C16.49550571 177.43518618 14.11553453 177.43322372 11.73556328 177.43248558 C8.41669215 177.43032931 5.0979058 177.42160087 1.77905273 177.41088867 C0.28836525 177.41156845 0.28836525 177.41156845 -1.23243713 177.41226196 C-2.13123596 177.40799698 -3.03003479 177.40373199 -3.95606995 177.39933777 C-5.13437299 177.396824 -5.13437299 177.396824 -6.33648014 177.39425945 C-8.125 177.265625 -8.125 177.265625 -9.125 176.265625 C-9.22644373 174.02997842 -9.25578185 171.79106086 -9.25871277 169.55311584 C-9.26097833 168.84313444 -9.26324388 168.13315304 -9.26557809 167.40165704 C-9.27194605 165.00481572 -9.27108695 162.60803053 -9.27026367 160.21118164 C-9.27325342 158.50001451 -9.27665552 156.78884805 -9.28044128 155.0776825 C-9.28930417 150.41659546 -9.29162035 145.75552676 -9.29225707 141.09443212 C-9.29320424 137.21000041 -9.29688031 133.32557303 -9.30042917 129.44114298 C-9.30858239 120.28050261 -9.31101261 111.11987209 -9.31030273 101.95922852 C-9.30970168 92.49401926 -9.32025705 83.02886696 -9.3360464 73.56367213 C-9.34910017 65.45073396 -9.35448755 57.33781445 -9.35384732 49.22486585 C-9.3535917 44.37342705 -9.35647808 39.52203882 -9.36702538 34.67061043 C-9.3766701 30.1095077 -9.37681062 25.54850427 -9.36950874 20.98739815 C-9.36845837 19.30956376 -9.3708524 17.63172331 -9.3768692 15.95389938 C-9.3845286 13.67085346 -9.37998501 11.38815564 -9.37223816 9.1051178 C-9.37278293 7.82512437 -9.37332769 6.54513094 -9.37388897 5.22634983 C-8.8647849 -0.82983278 -5.15728412 0.00883097 0 0 Z " fill="#00ADA5" transform="translate(757.125,424.734375)"/>
<path d="M0 0 C2.73515132 1.1966287 3.52545951 2.26104186 5 4.875 C5.2475 6.009375 5.495 7.14375 5.75 8.3125 C9.29219601 23.61478677 22.05922958 38.4514656 35 46.875 C42.09844246 50.92774397 49.26142945 54.31921836 57.20703125 56.3671875 C59 56.875 59 56.875 60 57.875 C60.375 60.75 60.375 60.75 60 63.875 C57.20590762 66.39869634 54.40611958 67.04911675 50.8125 67.75 C35.91964082 70.8414337 22.23844059 82.42407376 14 94.875 C10.23301506 101.31559348 6.575307 107.91273818 4.96484375 115.23828125 C4 118.875 4 118.875 1 120.875 C-0.9375 120.875 -0.9375 120.875 -3 119.875 C-5.94482482 116.37802053 -7.32534065 113.07396608 -8.75 108.75 C-11.09786038 102.01703074 -14.74899291 96.56081738 -19 90.875 C-19.64582031 90.00746094 -20.29164063 89.13992188 -20.95703125 88.24609375 C-30.00669349 77.18924065 -42.42800189 70.70011743 -55.98828125 66.91015625 C-58.86717973 65.92065158 -60.25787801 65.33409638 -62 62.875 C-62 60.375 -62 60.375 -61 57.875 C-58.16792235 55.55784556 -55.86151181 54.8431084 -52.28515625 54.01953125 C-48.01733595 52.9782786 -44.35291428 51.33452025 -40.5 49.25 C-39.84854004 48.90026123 -39.19708008 48.55052246 -38.52587891 48.19018555 C-33.12116945 45.17070055 -29.06104499 41.54672845 -25 36.875 C-24.154375 36.09125 -23.30875 35.3075 -22.4375 34.5 C-14.69071376 26.15730712 -8.62937634 15.77029214 -5.8125 4.6875 C-4.85195714 1.36254396 -3.68519516 -0.2303247 0 0 Z " fill="#FDCF00" transform="translate(241,260.125)"/>
<path d="M0 0 C33.70855314 1.24846493 33.70855314 1.24846493 44 12 C49.249092 19.28099858 48.77580333 28.37081326 48 37 C46.47196034 44.05107458 42.69922208 50.5073258 37 55 C28 59 28 59 0 59 C0 39.53 0 20.06 0 0 Z " fill="#F92A12" transform="translate(162,661)"/>
<path d="M0 0 C2.59465586 2.59465586 3.11234229 4.90121105 4.25 8.39453125 C4.46439224 9.04610199 4.67878448 9.69767273 4.89967346 10.36898804 C5.36294391 11.77870856 5.82354037 13.18931001 6.2817688 14.60067749 C7.49747524 18.34449547 8.73238893 22.08198182 9.96484375 25.8203125 C10.34140358 26.96517372 10.34140358 26.96517372 10.72557068 28.13316345 C13.26607425 35.84286171 15.90282724 43.51823628 18.5625 51.1875 C18.97951172 52.39059814 19.39652344 53.59369629 19.82617188 54.83325195 C20.55974848 56.94927981 21.29407194 59.06504909 22.02954102 61.18041992 C22.34979248 62.11088135 22.67004395 63.04134277 23 64 C23.37116943 65.02649658 23.74233887 66.05299316 24.12475586 67.1105957 C25 70 25 70 25 74 C8.5 74 -8 74 -25 74 C-21.61528195 61.58936714 -21.61528195 61.58936714 -19.6875 55.76171875 C-19.37199944 54.8071579 -19.37199944 54.8071579 -19.05012512 53.83331299 C-18.37057596 51.78341237 -17.68579798 49.73531784 -17 47.6875 C-16.76477631 46.98199005 -16.52955261 46.2764801 -16.28720093 45.54959106 C-11.17863978 30.24796105 -5.65722311 15.10632361 0 0 Z " fill="#140A2B" transform="translate(637,464)"/>
<path d="M0 0 C3.96 0.33 7.92 0.66 12 1 C13.32 0.67 14.64 0.34 16 0 C22.87961871 -0.60347533 28.95403735 0.52541476 35 4 C40.98292035 10.36853826 42.33502718 16.60075933 42.30078125 25.09375 C41.84149796 29.53150026 40.1405495 33.12981005 38 37 C37.34 37 36.68 37 36 37 C36 37.66 36 38.32 36 39 C29.05265571 42.71602137 22.83749448 43.72251902 15 43 C13.35 42.34 11.7 41.68 10 41 C10 47.93 10 54.86 10 62 C6.7 62 3.4 62 0 62 C0 41.54 0 21.08 0 0 Z " fill="#FB361B" transform="translate(688,678)"/>
<path d="M0 0 C4.71897998 3.29594127 8.67201026 8.79197434 10.0078125 14.40234375 C10.98536156 21.98169675 9.55070958 27.26125296 5.0078125 33.40234375 C0.36757129 38.30037614 -5.8642659 40.06111594 -12.4296875 40.77734375 C-21.52563449 39.81987565 -26.57033242 37.71243036 -32.49609375 30.55859375 C-36.1955573 25.22672983 -35.63960074 18.6189822 -34.9921875 12.40234375 C-32.57284223 5.84299816 -27.5115049 1.12108015 -21.3046875 -1.91015625 C-13.87236043 -3.4527147 -6.87862389 -3.46396651 0 0 Z " fill="#FA2A11" transform="translate(597.9921875,680.59765625)"/>
<path d="M0 0 C2.90387562 2.90387562 4.42087002 5.65969727 6.3125 9.3125 C6.85197266 10.26382813 6.85197266 10.26382813 7.40234375 11.234375 C9.36387552 15.71306556 8.98719982 20.88699686 7.6953125 25.53125 C4.78878704 32.21883071 -0.41327767 35.86428628 -6.9375 38.75 C-14.24433507 39.84602526 -22.50224864 39.73053668 -28.6875 35.3125 C-33.54831456 30.46342653 -36.96051613 26.19248253 -37.0625 19.125 C-36.91521076 12.62694508 -35.43668606 7.41448718 -31.07421875 2.4921875 C-22.53773405 -5.34396475 -9.8651336 -6.19438622 0 0 Z " fill="#F94329" transform="translate(347.6875,681.6875)"/>
<path d="M0 0 C5.1368454 0.4428315 8.04890329 2.73640329 11.625 6.3125 C12.19347656 5.879375 12.76195312 5.44625 13.34765625 5 C17.03027684 2.34408665 19.70790386 0.45480802 24.25 -0.25 C29.54519619 0.6325327 33.30676262 1.72442208 36.80761719 5.94189453 C38.90138422 9.82509545 39.14385792 12.82601346 39.015625 17.1171875 C39.00996521 17.8411673 39.00430542 18.56514709 38.99847412 19.31106567 C38.97623667 21.60390788 38.92606987 23.89513716 38.875 26.1875 C38.85491841 27.74997729 38.83667055 29.31247929 38.8203125 30.875 C38.77641416 34.6881133 38.70747971 38.50003402 38.625 42.3125 C36.97925434 42.33938151 35.33338587 42.35884123 33.6875 42.375 C32.31271484 42.39240234 32.31271484 42.39240234 30.91015625 42.41015625 C28.625 42.3125 28.625 42.3125 27.625 41.3125 C27.4665735 39.2416528 27.37375578 37.16571971 27.30859375 35.08984375 C27.26669922 33.82978516 27.22480469 32.56972656 27.18164062 31.27148438 C27.14182404 29.93099264 27.10211186 28.5904978 27.0625 27.25 C27.01931958 25.90558477 26.97570544 24.5611834 26.93164062 23.21679688 C26.82514642 19.9154766 26.7231354 16.61407764 26.625 13.3125 C22.85583027 11.19590361 20.85533511 11.23241444 16.625 12.3125 C15.635 12.9725 14.645 13.6325 13.625 14.3125 C13.11353802 17.21863434 13.11353802 17.21863434 13.11328125 20.6328125 C13.07783203 21.88964844 13.04238281 23.14648438 13.00585938 24.44140625 C12.98330078 25.76011719 12.96074219 27.07882812 12.9375 28.4375 C12.90433471 29.77737759 12.86984578 31.11722311 12.83398438 32.45703125 C12.75126673 35.7421033 12.68219307 39.02690032 12.625 42.3125 C11.14593108 42.33939216 9.66672517 42.35884621 8.1875 42.375 C6.95193359 42.39240234 6.95193359 42.39240234 5.69140625 42.41015625 C3.625 42.3125 3.625 42.3125 2.625 41.3125 C2.49118173 39.43396247 2.42146631 37.55078558 2.37890625 35.66796875 C2.34603516 34.51619141 2.31316406 33.36441406 2.27929688 32.17773438 C2.21839364 29.73771768 2.16106674 27.29760894 2.10742188 24.85742188 C2.07326172 23.70177734 2.03910156 22.54613281 2.00390625 21.35546875 C1.9788501 20.29352295 1.95379395 19.23157715 1.92797852 18.13745117 C1.63095121 15.36798871 1.04836942 13.67766375 -0.375 11.3125 C-5.03006469 10.98772804 -7.70615186 11.34653158 -11.375 14.3125 C-12.15682537 17.29611467 -12.15682537 17.29611467 -12.08203125 20.73046875 C-12.11103516 21.98408203 -12.14003906 23.23769531 -12.16992188 24.52929688 C-12.17572266 25.83962891 -12.18152344 27.14996094 -12.1875 28.5 C-12.21064287 29.83532731 -12.23600781 31.17061808 -12.26367188 32.50585938 C-12.32268232 35.77503823 -12.35886229 39.04287372 -12.375 42.3125 C-15.675 42.3125 -18.975 42.3125 -22.375 42.3125 C-24.04380615 38.97488769 -23.37128371 35.24490477 -23.25390625 31.5859375 C-23.23029526 30.72312164 -23.20668427 29.86030579 -23.18235779 28.97134399 C-23.10565703 26.20989794 -23.02166038 23.44872782 -22.9375 20.6875 C-22.88428573 18.81772193 -22.83154529 16.94793031 -22.77929688 15.078125 C-22.65003321 10.48940791 -22.51422496 5.90092523 -22.375 1.3125 C-19 1.1875 -19 1.1875 -15.375 1.3125 C-13.375 3.3125 -13.375 3.3125 -13.375 6.3125 C-12.01375 5.1059375 -12.01375 5.1059375 -10.625 3.875 C-6.97956387 0.86687787 -4.70100111 0.43527788 0 0 Z " fill="#F83118" transform="translate(638.375,677.6875)"/>
<path d="M0 0 C1.485 0.495 1.485 0.495 3 1 C3.921875 2.96875 3.921875 2.96875 4.75 5.5 C8.30189322 14.88235944 14.1635235 21.29525483 23 26 C25.64712933 27.16086735 28.24766085 28.09923446 31 29 C31 30.32 31 31.64 31 33 C30.29875 33.27972656 29.5975 33.55945313 28.875 33.84765625 C15.4750441 39.50986587 8.24947439 48.06527433 2.6640625 61.34765625 C2.33535156 62.16556641 2.33535156 62.16556641 2 63 C-0.94437492 61.97101845 -1.84620614 61.31535019 -3.23828125 58.4609375 C-3.59277344 57.44257813 -3.94726562 56.42421875 -4.3125 55.375 C-7.86836209 46.32272913 -13.2725372 40.33067283 -22 36 C-23.46967602 35.4131502 -24.94887472 34.8494684 -26.4375 34.3125 C-30 33 -30 33 -31 31 C-28.69399162 27.54098743 -28.27077016 27.5898401 -24.4375 26.75 C-14.82974363 24.03657025 -9.43956778 18.07554904 -4.44140625 9.66796875 C-2.72926436 6.49888227 -1.27251129 3.36841225 0 0 Z " fill="#FB9E00" transform="translate(317,231)"/>
<path d="M0 0 C0.82421875 1.87109375 0.82421875 1.87109375 1 4 C-0.03680745 6.56336313 -1.50908331 8.65067673 -3 11 C-5.23181756 10.50404054 -7.12226338 9.94061493 -9.1875 8.9375 C-14.72664942 7.09111686 -19.93350353 7.2051283 -25.25 9.6875 C-29.86918767 12.28234248 -33.06846259 15.60269388 -36 20 C-36.96504005 26.8568635 -36.65706796 32.70913686 -32.49609375 38.37890625 C-28.42042913 42.79509637 -24.25872105 44.6997251 -18.4140625 45.23828125 C-12.06504056 45.40723281 -8.99170534 44.86857164 -4 41 C-3.01 41.33 -2.02 41.66 -1 42 C-0.7506643 43.60115576 -0.52621352 45.20620159 -0.3125 46.8125 C-0.12107422 48.15248047 -0.12107422 48.15248047 0.07421875 49.51953125 C0 52 0 52 -1.24609375 53.74609375 C-7.39937043 58.14520692 -16.07910519 57.27918871 -23.203125 56.6640625 C-31.35658871 55.23804519 -38.85065989 51.60235441 -43.8203125 44.82421875 C-44.20960938 44.22222656 -44.59890625 43.62023437 -45 43 C-45.40992188 42.42894531 -45.81984375 41.85789062 -46.2421875 41.26953125 C-50.57916354 34.25559413 -49.96938566 25.7560484 -48.375 17.93359375 C-45.77873888 9.60005916 -40.67962814 3.75204426 -33 -0.375 C-22.34465885 -5.01223745 -10.52268941 -5.46370412 0 0 Z " fill="#FA250F" transform="translate(440,747)"/>
<path d="M0 0 C1.125 2.3125 1.125 2.3125 1 5 C-0.9375 8.3125 -0.9375 8.3125 -3 11 C-7.875 9.125 -7.875 9.125 -9 8 C-16.07422221 7.41977988 -21.71580955 7.6573455 -28 11 C-28.99 11.33 -29.98 11.66 -31 12 C-32.08431094 13.74867483 -32.08431094 13.74867483 -33 16 C-33.53625 16.886875 -34.0725 17.77375 -34.625 18.6875 C-36.84627573 24.03875516 -36.7983746 28.73793862 -34.875 34.1875 C-31.79058764 38.81411854 -28.94107947 42.12461122 -23.8125 44.4375 C-16.59777428 45.50196773 -10.11926115 45.20699204 -4 41 C-3.01 41.33 -2.02 41.66 -1 42 C1.46836364 48.73190083 1.46836364 48.73190083 0.01171875 52.67578125 C-2.76453681 55.88329981 -5.53861081 56.08818151 -9.5625 56.4375 C-10.64168701 56.5468689 -10.64168701 56.5468689 -11.74267578 56.65844727 C-21.44930094 57.48530793 -29.81228901 55.40801751 -38 50 C-44.27659603 44.6114883 -48.23142763 37.68568882 -49.34375 29.45703125 C-49.69011872 20.14837186 -46.81038553 13.09544967 -40.87109375 6.0078125 C-30.7808352 -4.81973008 -12.89314737 -7.71692791 0 0 Z " fill="#FA2811" transform="translate(558,665)"/>
<path d="M0 0 C3.51887445 3.2481918 5.20224426 6.50561064 7 11 C7 14.96 7 18.92 7 23 C-2.24 23.33 -11.48 23.66 -21 24 C-19.35 25.65 -17.7 27.3 -16 29 C-15.505 29.495 -15.505 29.495 -15 30 C-12.91864863 30.0999519 -10.83374472 30.12967207 -8.75 30.125 C-7.04070312 30.12886719 -7.04070312 30.12886719 -5.296875 30.1328125 C-2.39955624 30.01609587 0.18608964 29.66645245 3 29 C5.1519437 32.22791555 5.20086443 33.28400809 5 37 C-3.42023546 41.50384687 -10.86278652 42.05642622 -20.0625 39.6875 C-25.95642364 37.54357594 -28.85705125 34.67873938 -31.84375 29.203125 C-34.23281513 22.58476889 -34.26319459 15.99054654 -32.140625 9.28515625 C-29.45090941 3.74913205 -25.58822403 0.48859281 -20 -2 C-13.05776665 -4.14029329 -6.31730383 -3.64459836 0 0 Z " fill="#FA462C" transform="translate(432,681)"/>
<path d="M0 0 C1.01964844 0.06703125 2.03929687 0.1340625 3.08984375 0.203125 C7.13806812 0.94787061 9.85076801 2.40363112 12.609375 5.46875 C13.00640625 6.0565625 13.4034375 6.644375 13.8125 7.25 C14.21984375 7.8378125 14.6271875 8.425625 15.046875 9.03125 C17.092352 12.49282646 17.19785773 15.44942028 17.1875 19.375 C17.19136719 20.84839844 17.19136719 20.84839844 17.1953125 22.3515625 C17.0625 24.75 17.0625 24.75 16.0625 25.75 C14.06467874 25.90825258 12.06161166 26.00119171 10.05859375 26.06640625 C8.84365234 26.10830078 7.62871094 26.15019531 6.37695312 26.19335938 C5.09755859 26.23267578 3.81816406 26.27199219 2.5 26.3125 C0.57510742 26.37727539 0.57510742 26.37727539 -1.38867188 26.44335938 C-4.57149853 26.549848 -7.75440674 26.65185962 -10.9375 26.75 C-10.58782827 28.71709271 -10.58782827 28.71709271 -9.9375 30.75 C-4.26617673 34.11734819 2.85490393 34.20475755 9.125 32.8125 C10.44130205 32.47273656 11.75547789 32.1238763 13.0625 31.75 C15.0625 35.4921875 15.0625 35.4921875 15.0625 37.8125 C13.42307418 40.98888752 11.37679816 41.52894278 8.0625 42.75 C0.53512594 44.50148491 -6.84328909 43.86307145 -13.9375 40.75 C-18.76421168 36.78789929 -22.52239242 31.91918673 -23.34375 25.6484375 C-23.56847647 17.20246755 -22.69291883 11.1854902 -16.9375 4.75 C-11.68271437 0.51226965 -6.57639244 -0.49758329 0 0 Z " fill="#FA4024" transform="translate(830.9375,678.25)"/>
<path d="M0 0 C5.56514563 3.97510402 8.37360548 8.16297483 9.625 14.875 C9.76440916 17.88431498 9.74783409 20.8655648 9.625 23.875 C6.9428719 25.21606405 4.74101968 25.08950419 1.7421875 25.19140625 C0.57558594 25.23330078 -0.59101562 25.27519531 -1.79296875 25.31835938 C-3.01628906 25.35767578 -4.23960937 25.39699219 -5.5 25.4375 C-6.73105469 25.48068359 -7.96210937 25.52386719 -9.23046875 25.56835938 C-12.27852853 25.67468704 -15.3266719 25.77671781 -18.375 25.875 C-14.30682362 30.44431381 -14.30682362 30.44431381 -8.73046875 32.0078125 C-7.68503906 32.00523437 -6.63960937 32.00265625 -5.5625 32 C-4.52480469 32.00257813 -3.48710938 32.00515625 -2.41796875 32.0078125 C0.37842942 31.88576175 2.90439879 31.50863355 5.625 30.875 C6.93574379 33.03387212 7.66414003 34.35313299 7.47265625 36.90625 C6.625 38.875 6.625 38.875 4.5859375 39.921875 C-4.84605037 42.48646385 -12.13642036 42.18370062 -21.375 38.875 C-26.2345763 36.08332851 -28.82648663 32.1923819 -30.375 26.875 C-31.32319384 19.99451646 -31.53528471 13.77657171 -27.75 7.75 C-20.82185397 -1.04090227 -10.65128783 -3.55042928 0 0 Z " fill="#F9230F" transform="translate(625.375,762.125)"/>
<path d="M0 0 C5.36801772 5.36801772 7.09346519 9.91176056 7.125 17.375 C7.09316134 18.91690094 7.05482724 20.45874525 7 22 C4.23382437 23.38308781 1.98982 23.11210196 -1.1015625 23.09765625 C-2.31328125 23.09443359 -3.525 23.09121094 -4.7734375 23.08789062 C-6.04445313 23.07951172 -7.31546875 23.07113281 -8.625 23.0625 C-9.90375 23.05798828 -11.1825 23.05347656 -12.5 23.04882812 C-15.66671292 23.03701203 -18.83333356 23.02053815 -22 23 C-21.236875 23.969375 -20.47375 24.93875 -19.6875 25.9375 C-19.25824219 26.48277344 -18.82898438 27.02804687 -18.38671875 27.58984375 C-16.24329646 29.76949289 -14.23503452 29.98861656 -11.2578125 30.1328125 C-9.70707031 30.12894531 -9.70707031 30.12894531 -8.125 30.125 C-7.09632813 30.12757813 -6.06765625 30.13015625 -5.0078125 30.1328125 C-2.225352 30.00995061 0.29239874 29.62944236 3 29 C3.495 32.465 3.495 32.465 4 36 C-0.90266809 40.40409168 -6.68478607 40 -13 40 C-18.88978763 39.44238697 -23.39964685 37.85145845 -28 34 C-33.53041777 26.67593322 -33.89557856 19.98563824 -33 11 C-31.79766446 7.84988089 -30.21200314 5.52436093 -28 3 C-27.360625 2.21625 -26.72125 1.4325 -26.0625 0.625 C-18.84132655 -5.06440939 -7.63390356 -4.58034214 0 0 Z " fill="#F9230F" transform="translate(510,764)"/>
<path d="M0 0 C4.17406304 2.6001042 6.18955527 5.82505255 7.5625 10.5 C8.03530142 15.67854465 7.94168366 20.8107167 7.8125 26 C7.79240166 27.40882874 7.77415678 28.81768521 7.7578125 30.2265625 C7.71089203 33.65175664 7.64524777 37.07551524 7.5625 40.5 C6.81121826 40.48767334 6.05993652 40.47534668 5.28588867 40.46264648 C4.2982251 40.45305908 3.31056152 40.44347168 2.29296875 40.43359375 C1.31481201 40.42126709 0.33665527 40.40894043 -0.67114258 40.39624023 C-3.63329043 40.39622857 -3.63329043 40.39622857 -7.125 41.5625 C-12.48514767 43.07952293 -16.63237055 42.21523997 -21.75 40.1875 C-24.57064267 38.41639879 -25.92237399 37.45050855 -27.4375 34.5 C-28.42949194 30.10689284 -28.7290067 27.58273917 -27.5625 23.25 C-22.12818567 16.21735793 -12.73740256 15.56733096 -4.4375 14.5 C-4.93506092 11.74358584 -4.93506092 11.74358584 -6.4375 9.5 C-11.8029663 9.0142841 -16.41260856 9.43850608 -21.4375 11.5 C-23.0875 9.85 -24.7375 8.2 -26.4375 6.5 C-25.0585298 3.0990165 -23.83491619 1.76970864 -20.5 0.25 C-13.77600379 -2.47419139 -6.76281569 -2.81574482 0 0 Z " fill="#FA3C21" transform="translate(762.4375,679.5)"/>
<path d="M0 0 C4.23832717 2.560656 6.43652201 5.12206602 8 9.8125 C8.08397157 12.16930213 8.10728187 14.52844081 8.09765625 16.88671875 C8.0962413 17.5705513 8.09482635 18.25438385 8.09336853 18.9589386 C8.08777876 21.13933722 8.07522822 23.31963251 8.0625 25.5 C8.05748367 26.97981622 8.052921 28.45963406 8.04882812 29.93945312 C8.03781271 33.56383557 8.02055512 37.1881577 8 40.8125 C1.2578125 40.890625 1.2578125 40.890625 -1.0625 40.1875 C-3.15227895 39.60644704 -3.15227895 39.60644704 -5.625 40.8125 C-11.54707111 42.56718774 -16.88970749 41.81009282 -22.4375 39.1875 C-25.63676443 36.22232809 -26.85778443 34.02441992 -28 29.8125 C-27.24962013 24.89334307 -26.03295096 21.78414807 -22 18.8125 C-15.74111414 15.84776459 -9.87491658 15.17899371 -3 14.8125 C-4.11854586 11.08635847 -4.11854586 11.08635847 -7 8.8125 C-11.71707654 8.48100724 -11.71707654 8.48100724 -16.125 9.875 C-18 10.8125 -18 10.8125 -20.5625 10.6875 C-23.52220992 9.62504003 -24.44783424 8.50836685 -26 5.8125 C-26 5.1525 -26 4.4925 -26 3.8125 C-17.80393787 -1.26470663 -9.36758316 -3.47021817 0 0 Z " fill="#F9230E" transform="translate(550,762.1875)"/>
<path d="M0 0 C0.75 1.6875 0.75 1.6875 1 4 C-0.375 6.8125 -0.375 6.8125 -3 9 C-5.43636567 9.02591878 -7.59278457 8.69418925 -9.9765625 8.19921875 C-10.64429688 8.13347656 -11.31203125 8.06773437 -12 8 C-12.66 8.66 -13.32 9.32 -14 10 C-10.35940302 13.99291281 -6.46601172 16.79698933 -1.890625 19.66796875 C0 21 0 21 1 23 C1.48724392 27.96030289 1.74112278 32.45330899 -0.4375 37 C-5.26646132 40.76894542 -10.43295198 42.37229493 -16.5625 41.9375 C-22.62590692 40.97117771 -27.80796992 38.50064579 -32 34 C-30.56410256 28.37606838 -30.56410256 28.37606838 -28.3125 26.875 C-25.27395845 27.03924549 -23.40724246 28.48415572 -20.8828125 30.07421875 C-17.94035377 31.52102937 -15.20127641 31.26132869 -12 31 C-11.67 29.68 -11.34 28.36 -11 27 C-12.58271233 25.72839334 -14.16619635 24.45774715 -15.75 23.1875 C-16.63171875 22.47980469 -17.5134375 21.77210938 -18.421875 21.04296875 C-20.8909474 19.01701627 -20.8909474 19.01701627 -23.26953125 17.54296875 C-26.153671 14.97133173 -25.87919208 12.12643855 -26.09375 8.44140625 C-25.96513964 5.09217811 -25.29877332 3.44708128 -23 1 C-16.02312804 -3.93486065 -7.65189887 -2.66153004 0 0 Z " fill="#F9361A" transform="translate(266,680)"/>
<path d="M0 0 C10.79772944 0 13.1995726 0.05298191 20.8125 6.3125 C24.68196508 11.06641424 25.20503217 15.47216844 24.875 21.4375 C24.16223634 27.26774658 23.00596061 32.44312266 18.37890625 36.37890625 C12.10532632 40.12218575 7.87670952 39 0 39 C0 26.13 0 13.26 0 0 Z " fill="#14082C" transform="translate(174,672)"/>
<path d="M0 0 C3.08838178 7.13871855 5.85569162 14.28171409 8.203125 21.69921875 C8.79018718 23.93576939 8.79018718 23.93576939 10 25 C10.31453125 24.10539063 10.6290625 23.21078125 10.953125 22.2890625 C18.20792079 1.79207921 18.20792079 1.79207921 20 0 C21.51928038 -0.07179964 23.04167482 -0.08392007 24.5625 -0.0625 C25.38878906 -0.05347656 26.21507812 -0.04445313 27.06640625 -0.03515625 C27.70449219 -0.02355469 28.34257812 -0.01195312 29 0 C30.10717378 3.32152134 29.9672457 3.78546084 28.77734375 6.88671875 C28.48891602 7.65306641 28.20048828 8.41941406 27.90332031 9.20898438 C27.58459961 10.02689453 27.26587891 10.84480469 26.9375 11.6875 C26.28507379 13.39970816 25.63273153 15.11194832 24.98046875 16.82421875 C24.64837402 17.68708496 24.3162793 18.54995117 23.97412109 19.43896484 C23.05597692 21.8528326 22.17117876 24.27560036 21.30078125 26.70703125 C21.0385376 27.43253174 20.77629395 28.15803223 20.50610352 28.90551758 C20.01284799 30.27188475 19.52480193 31.64014709 19.04272461 33.01049805 C17.8218834 36.3415321 16.85366824 38.84012084 14 41 C11.51953125 41.29296875 11.51953125 41.29296875 8.8125 41.1875 C7.91144531 41.16042969 7.01039063 41.13335938 6.08203125 41.10546875 C5.39496094 41.07066406 4.70789063 41.03585937 4 41 C2.41236838 37.23096253 0.83070927 33.4594453 -0.75 29.6875 C-1.1934375 28.63498047 -1.636875 27.58246094 -2.09375 26.49804688 C-4.24150326 21.36554828 -6.34838191 16.21941203 -8.328125 11.01953125 C-8.81394043 9.74686401 -8.81394043 9.74686401 -9.30957031 8.44848633 C-10.04110138 5.85424126 -10.12816782 3.68164212 -10 1 C-6.78548731 -0.60725635 -3.56387464 -0.05748185 0 0 Z " fill="#FA4D34" transform="translate(368,679)"/>
<path d="M0 0 C1.125 1.8125 1.125 1.8125 1 4 C-0.4375 7.25 -0.4375 7.25 -2 10 C-3.175625 9.649375 -4.35125 9.29875 -5.5625 8.9375 C-9.6941568 7.93013492 -12.83948274 7.82249511 -17 9 C-19.97551265 11.06992184 -21.59918728 12.63426776 -22.6328125 16.15625 C-23.22425484 19.93141388 -23.25884636 22.35969585 -21.8125 25.9375 C-19.46050737 28.61390541 -17.42379019 29.84726614 -13.8515625 30.23046875 C-9.47078505 30.14592743 -5.31105015 29.88431798 -1 29 C0.625 31.75 0.625 31.75 2 35 C1.34375 37.125 1.34375 37.125 0 39 C-5.7436952 41.52627258 -13.26930649 42.06318399 -19.2890625 40.34765625 C-25.78767346 37.81558877 -30.11791928 33.94650837 -33.12890625 27.6328125 C-35.03171276 21.88172915 -35.10374417 15.78980854 -32.8671875 10.13671875 C-29.37144009 3.95967818 -25.69639619 0.64284275 -19.1875 -2.25 C-12.20855458 -3.8921048 -6.25150554 -3.64671157 0 0 Z " fill="#FA3B20" transform="translate(306,681)"/>
<path d="M0 0 C0 3.96 0 7.92 0 12 C4.29 12 8.58 12 13 12 C13 13.98 13 15.96 13 18 C12.34 18.66 11.68 19.32 11 20 C8.3984375 19.9765625 8.3984375 19.9765625 5.375 19.625 C4.37210938 19.51414062 3.36921875 19.40328125 2.3359375 19.2890625 C1.17964844 19.14597656 1.17964844 19.14597656 0 19 C0.1546875 19.80953125 0.309375 20.6190625 0.46875 21.453125 C1.19712513 26.31610012 1.38276053 31.16638936 1.60546875 36.07421875 C1.72412099 40.16933551 1.72412099 40.16933551 3 44 C5.32156597 44.40729228 7.6568787 44.74438677 10 45 C10.125 47.875 10.125 47.875 10 51 C8 53 8 53 6.01171875 53.265625 C-2.31728045 53.20963173 -2.31728045 53.20963173 -6 51 C-8.60495534 48.30863433 -9.8959993 46.69764342 -10.45410156 42.95385742 C-10.4331543 41.84888916 -10.41220703 40.7439209 -10.390625 39.60546875 C-10.37773438 38.40341797 -10.36484375 37.20136719 -10.3515625 35.96289062 C-10.31804688 34.71701172 -10.28453125 33.47113281 -10.25 32.1875 C-10.23195313 30.92228516 -10.21390625 29.65707031 -10.1953125 28.35351562 C-10.14823916 25.23490665 -10.08249094 22.11784027 -10 19 C-11.98 18.67 -13.96 18.34 -16 18 C-16.33 16.68 -16.66 15.36 -17 14 C-14.69 13.34 -12.38 12.68 -10 12 C-10.165 11.13375 -10.33 10.2675 -10.5 9.375 C-9.90778485 5.37754776 -9.23262076 4.98095798 -6.125 2.625 C-2.36923077 0 -2.36923077 0 0 0 Z " fill="#FA240E" transform="translate(580,750)"/>
<path d="M0 0 C0.99 0 1.98 0 3 0 C3.23074219 0.58007812 3.46148437 1.16015625 3.69921875 1.7578125 C7.27529382 10.48463968 7.27529382 10.48463968 14.5078125 16.1484375 C16.28655921 16.82243554 18.08105588 17.4567326 19.890625 18.04296875 C20.93476563 18.51669922 20.93476563 18.51669922 22 19 C22.495 20.485 22.495 20.485 23 22 C22.20335937 22.3403125 21.40671875 22.680625 20.5859375 23.03125 C10.84171338 27.48846201 6.37001673 32.28885171 2 42 C0.515 41.505 0.515 41.505 -1 41 C-1.72930326 39.30934244 -2.45349932 37.61605041 -3.13671875 35.90625 C-6.08551942 29.39487115 -10.80315589 26.71034931 -17 24 C-18.33657171 23.3398498 -19.67083681 22.67494255 -21 22 C-20.505 20.515 -20.505 20.515 -20 19 C-17.92578125 18.078125 -17.92578125 18.078125 -15.3125 17.25 C-6.84790292 14.06219168 -3.61823623 7.93228711 0 0 Z " fill="#FCE000" transform="translate(191,375)"/>
<path d="M0 0 C2.69082872 0.17635452 5.32851446 0.61835921 8 1 C8.33 2.65 8.66 4.3 9 6 C9.66 6 10.32 6 11 6 C11.268125 5.38125 11.53625 4.7625 11.8125 4.125 C13 2 13 2 16 0 C20.66111976 -0.33899053 22.74213431 -0.12893285 27 2 C26.01 4.97 25.02 7.94 24 11 C22.68 11 21.36 11 20 11 C16.18813093 11.46675948 14.24034538 11.83976974 11 14 C10.48853802 16.90613434 10.48853802 16.90613434 10.48828125 20.3203125 C10.45283203 21.57714844 10.41738281 22.83398438 10.38085938 24.12890625 C10.34702148 26.10697266 10.34702148 26.10697266 10.3125 28.125 C10.27933471 29.46487759 10.24484578 30.80472311 10.20898438 32.14453125 C10.12626673 35.4296033 10.05719307 38.71440032 10 42 C8.54257537 42.08096803 7.08387193 42.13917774 5.625 42.1875 C4.81289063 42.22230469 4.00078125 42.25710938 3.1640625 42.29296875 C2.44992187 42.19628906 1.73578125 42.09960938 1 42 C-1.58163618 38.12754573 -1.27014859 34.91692973 -1.23046875 30.4296875 C-1.23001053 29.59285431 -1.22955231 28.75602112 -1.2290802 27.89382935 C-1.22606112 26.12695902 -1.2181851 24.36009129 -1.20581055 22.59326172 C-1.18752348 19.87848566 -1.1853011 17.16405004 -1.18554688 14.44921875 C-1.18063279 12.73437203 -1.17480494 11.01952763 -1.16796875 9.3046875 C-1.16685593 8.48805634 -1.1657431 7.67142517 -1.16459656 6.83004761 C-1.11605733 1.11605733 -1.11605733 1.11605733 0 0 Z " fill="#F73C21" transform="translate(780,678)"/>
<path d="M0 0 C3 1 3 1 3.9921875 2.890625 C4.42917969 4.05851562 4.42917969 4.05851562 4.875 5.25 C6.62461141 9.41858173 8.37877383 12.15475087 12 15 C15.16701423 16.33563611 15.16701423 16.33563611 18 17 C17.734375 18.85546875 17.734375 18.85546875 17 21 C15.328125 22.23828125 15.328125 22.23828125 13.25 23.3125 C6.54984179 27.23191276 3.73532053 32.94575231 1 40 C-0.485 39.505 -0.485 39.505 -2 39 C-2.921875 37.14453125 -2.921875 37.14453125 -3.75 34.8125 C-6.5678451 28.02160127 -11.65983996 24.45826911 -18 21 C-17 18 -17 18 -15.36328125 17.078125 C-14.68652344 16.80484375 -14.00976562 16.5315625 -13.3125 16.25 C-6.13659067 12.86780618 -2.66564721 7.25648408 0 0 Z " fill="#FB8C00" transform="translate(294,365)"/>
<path d="M0 0 C2.64 0.33 5.28 0.66 8 1 C9.5 3.0625 9.5 3.0625 10 5 C10.4125 4.54625 10.825 4.0925 11.25 3.625 C14.36479181 0.73269331 16.31504314 0.0354288 20.625 -0.1875 C24 0 24 0 26 1 C26.32613618 5.67461851 25.70582788 8.16674383 23 12 C21.7625 11.7525 20.525 11.505 19.25 11.25 C16.28848506 10.91453636 15.28021658 10.85629919 12.5625 12.25 C7.77215371 20.68100947 10.23935834 32.67336307 11 42 C7.37 42 3.74 42 0 42 C0 28.14 0 14.28 0 0 Z " fill="#F93D21" transform="translate(447,678)"/>
<path d="M0 0 C1.27875 0.103125 2.5575 0.20625 3.875 0.3125 C4.95394531 0.39951172 4.95394531 0.39951172 6.0546875 0.48828125 C8 1 8 1 10 4 C10.598125 3.525625 11.19625 3.05125 11.8125 2.5625 C15.79386381 -0.28133129 19.23228051 -0.1765822 24 0 C24.33 0.33 24.66 0.66 25 1 C24.984375 2.99609375 24.984375 2.99609375 24.75 5.4375 C24.64945312 6.64212891 24.64945312 6.64212891 24.546875 7.87109375 C24 10 24 10 21 12 C20.67 11.67 20.34 11.34 20 11 C16.82886699 10.71812151 14.68900041 10.63998737 11.83666992 12.13037109 C9.25497334 14.75839614 9.47364871 16.52349093 9.42578125 20.1640625 C9.39806641 21.36804688 9.37035156 22.57203125 9.34179688 23.8125 C9.33212891 25.070625 9.32246094 26.32875 9.3125 27.625 C9.27062407 30.11725236 9.22524916 32.60944927 9.17578125 35.1015625 C9.16458252 36.20838379 9.15338379 37.31520508 9.1418457 38.45556641 C9 41 9 41 8 42 C6.47480724 41.91062197 4.95318071 41.75462854 3.4375 41.5625 C2.61121094 41.46066406 1.78492188 41.35882812 0.93359375 41.25390625 C0.29550781 41.17011719 -0.34257812 41.08632813 -1 41 C-1.20638953 13.05485809 -1.20638953 13.05485809 0 0 Z " fill="#F8240F" transform="translate(450,761)"/>
<path d="M0 0 C1.45880109 0.14107747 2.91703551 0.28802415 4.375 0.4375 C5.59316406 0.55931641 5.59316406 0.55931641 6.8359375 0.68359375 C9 1 9 1 11 2 C11 15.2 11 28.4 11 42 C7.7 42 4.4 42 1 42 C0 41 0 41 -0.11352539 37.12280273 C-0.11336621 35.39305833 -0.10766849 33.66330919 -0.09765625 31.93359375 C-0.0962413 31.02497086 -0.09482635 30.11634796 -0.09336853 29.18019104 C-0.08775193 26.26592779 -0.07519665 23.35174019 -0.0625 20.4375 C-0.05748714 18.46679798 -0.05292386 16.49609476 -0.04882812 14.52539062 C-0.03777711 9.68356441 -0.02050138 4.84179505 0 0 Z " fill="#FB2F14" transform="translate(218,678)"/>
<path d="M0 0 C4.81659662 2.45551985 7.28103603 4.84310809 9 10 C9 14.5357202 8.51406801 16.39366337 5.5625 19.875 C1.70711215 23.0721509 -0.76765359 23.41904163 -5.671875 23.33203125 C-9.88612634 22.73100547 -11.29181427 21.31752752 -14 18 C-15.4450278 13.55878463 -15.3339196 10.06068578 -13.9375 5.625 C-10.37071179 0.79257727 -5.90263102 -0.86080036 0 0 Z " fill="#15082D" transform="translate(588,688)"/>
<path d="M0 0 C2.75 1.3125 2.75 1.3125 5 3 C5.5775 3.391875 6.155 3.78375 6.75 4.1875 C8.82199508 7.19189287 9.10776337 10.44380865 9 14 C7.7996613 17.53433061 6.66380195 19.41429239 3.875 21.875 C-0.14523081 23.4481338 -3.74595958 23.85543204 -8 23 C-11 20.5625 -11 20.5625 -13 18 C-13.33 17.67 -13.66 17.34 -14 17 C-14.53798008 12.91903684 -14.93436984 8.75020022 -12.953125 5.0390625 C-8.90587546 0.1585557 -6.20766137 -0.4208584 0 0 Z " fill="#14072C" transform="translate(336,688)"/>
<path d="M0 0 C3.24221482 2.36411497 4.63390397 3.99323592 6 7.75 C6 12.1490665 4.98392305 16.06364475 3 20 C-0.22747055 22.15164703 -1.20505639 22.27245079 -4.9375 22.25 C-5.79214844 22.25515625 -6.64679687 22.2603125 -7.52734375 22.265625 C-10.15673987 21.98316223 -11.77662569 21.41261365 -14 20 C-15.50929383 16.98141234 -15.22510073 13.87099046 -15.25 10.5625 C-15.270625 9.88123047 -15.29125 9.19996094 -15.3125 8.49804688 C-15.35161725 3.50570833 -15.35161725 3.50570833 -13.671875 1.08984375 C-9.29803731 -1.76132615 -4.8557931 -1.23524561 0 0 Z " fill="#13072C" transform="translate(713,689)"/>
<path d="M0 0 C5.97873264 0.90060764 5.97873264 0.90060764 7.08984375 2.01171875 C6.86095096 8.99294876 5.2500043 18.8515582 0.08984375 24.01171875 C-1.5763274 24.05235707 -3.2440372 24.05443975 -4.91015625 24.01171875 C-5.70802029 20.66068976 -6.09805949 18.5629016 -4.97265625 15.26171875 C-3.70936023 11.39751915 -3.83997044 8.20930118 -4.03515625 4.18359375 C-3.86759506 1.27221803 -3.02678432 0.01856923 0 0 Z " fill="#F52F16" transform="translate(476.91015625,708.98828125)"/>
<path d="M0 0 C3.125 0.1875 3.125 0.1875 6.125 2.1875 C5.753574 9.61602002 4.20115845 16.84680908 0.125 23.1875 C-2.546875 24.03125 -2.546875 24.03125 -4.875 24.1875 C-6 22 -6 22 -6.875 19.1875 C-6.42447266 18.07181641 -6.42447266 18.07181641 -5.96484375 16.93359375 C-4.6762353 13.68666996 -4.49755579 10.91812376 -4.3125 7.4375 C-3.9179742 0.25552006 -3.9179742 0.25552006 0 0 Z " fill="#F84124" transform="translate(856.875,708.8125)"/>
<path d="M0 0 C0.33 2.31 0.66 4.62 1 7 C-5.50045161 10.47698575 -10.70365923 11.47073166 -18 11 C-20.0625 9.8125 -20.0625 9.8125 -21 8 C-20.9375 5.4375 -20.9375 5.4375 -20 3 C-17.0089507 1.07766269 -14.38302958 0.68358566 -10.875 0.4375 C-0.94745223 -0.28423567 -0.94745223 -0.28423567 0 0 Z " fill="#F7462C" transform="translate(436,711)"/>
<path d="M0 0 C0.08096803 1.45742463 0.13917774 2.91612807 0.1875 4.375 C0.22230469 5.18710937 0.25710938 5.99921875 0.29296875 6.8359375 C0.19628906 7.55007813 0.09960938 8.26421875 0 9 C-3.26916282 11.17944188 -3.86280386 11.23305854 -7.5625 10.8125 C-8.34753906 10.73644531 -9.13257813 10.66039062 -9.94140625 10.58203125 C-12 10 -12 10 -14 7 C-13.8125 4.9375 -13.8125 4.9375 -13 3 C-8.86395936 0.24263957 -4.91089275 0 0 0 Z " fill="#15082E" transform="translate(547,785)"/>
<path d="M0 0 C0 2.97 0 5.94 0 9 C-3.75797042 10.25265681 -7.06923815 10.44946341 -11 10 C-13.0625 8.8125 -13.0625 8.8125 -14 7 C-14 4.4375 -14 4.4375 -13 2 C-9.3043362 -0.11180789 -3.96494744 -1.98247372 0 0 Z " fill="#16072C" transform="translate(759,703)"/>
<path d="M0 0 C3.6875 1.375 3.6875 1.375 7 3 C6.125 10.875 6.125 10.875 5 12 C3.48071962 12.07179964 1.95832518 12.08392007 0.4375 12.0625 C-0.38878906 12.05347656 -1.21507812 12.04445313 -2.06640625 12.03515625 C-2.70449219 12.02355469 -3.34257812 12.01195312 -4 12 C-5.1875 9.8125 -5.1875 9.8125 -6 7 C-4.44393624 3.47838203 -3.23307656 2.15538437 0 0 Z " fill="#F92D11" transform="translate(223,659)"/>
<path d="M0 0 C-3.31606007 1.37924623 -6.65243923 2.69915742 -10 4 C-10.86882812 4.34675781 -11.73765625 4.69351563 -12.6328125 5.05078125 C-32.04102825 12.21136227 -52.71085503 11.80062142 -73 10 C-73 9.67 -73 9.34 -73 9 C-72.03811768 8.98018066 -71.07623535 8.96036133 -70.08520508 8.93994141 C-66.45249004 8.86279157 -62.82011995 8.77426228 -59.18774414 8.68261719 C-57.627593 8.64477202 -56.06736768 8.60984958 -54.50708008 8.578125 C-38.32911957 8.24530935 -23.46167256 6.12280575 -8.18994141 0.58862305 C-3.32932891 -1.1097763 -3.32932891 -1.1097763 0 0 Z " fill="#F4B801" transform="translate(274,593)"/>
<path d="M0 0 C0.66 0.33 1.32 0.66 2 1 C0.45761316 4.17046184 -0.46991399 5.74112079 -3.6875 7.3125 C-8.33410854 9.6796402 -11.46476865 13.2225066 -15 17 C-12.525 17.99 -12.525 17.99 -10 19 C-10 19.66 -10 20.32 -10 21 C-9.34 21 -8.68 21 -8 21 C-7.67 20.34 -7.34 19.68 -7 19 C-7 19.99 -7 20.98 -7 22 C-6.01 21.67 -5.02 21.34 -4 21 C-3.67 21.99 -3.34 22.98 -3 24 C-0.36 24 2.28 24 5 24 C5 24.66 5 25.32 5 26 C6.65 26 8.3 26 10 26 C10 26.33 10 26.66 10 27 C-0.73328423 27.59629357 -9.46614705 23.58567452 -19 19 C-18.43584261 15.44503561 -17.30819938 14.02611297 -14.5625 11.75 C-13.85222656 11.15574219 -13.14195312 10.56148437 -12.41015625 9.94921875 C-11.61480469 9.30597656 -10.81945312 8.66273438 -10 8 C-9.09121094 7.26394531 -8.18242187 6.52789063 -7.24609375 5.76953125 C-4.83931207 3.83520458 -2.42414689 1.91249293 0 0 Z " fill="#F6D201" transform="translate(175,573)"/>
<path d="M0 0 C2.5625 2.375 2.5625 2.375 4 5 C4 5.66 4 6.32 4 7 C-2.27 7 -8.54 7 -15 7 C-10.93418907 0.22364845 -7.60757709 -1.38694095 0 0 Z " fill="#0E072F" transform="translate(621,771)"/>
<path d="M0 0 C0.7734375 -0.01675781 1.546875 -0.03351562 2.34375 -0.05078125 C5.0528895 0.40564986 5.87750522 1.12114272 7.5 3.3125 C7.83 4.6325 8.16 5.9525 8.5 7.3125 C2.23 7.3125 -4.04 7.3125 -10.5 7.3125 C-7.34200494 2.0491749 -5.99374541 0.02996873 0 0 Z " fill="#0E072F" transform="translate(498.5,770.6875)"/>
<path d="M0 0 C3 3.63636364 3 3.63636364 3 6 C-3.27 6 -9.54 6 -16 6 C-11.73960313 -1.10066146 -7.89154429 -2.37643095 0 0 Z " fill="#13072C" transform="translate(835,689)"/>
<path d="M0 0 C2.875 1.8125 2.875 1.8125 5 4 C5 4.99 5 5.98 5 7 C-1.27 7 -7.54 7 -14 7 C-11.04035886 1.08071771 -6.58933865 -0.98139086 0 0 Z " fill="#12062B" transform="translate(424,688)"/>
<path d="M0 0 C2.75998748 1.0872678 3.68303643 2.19877954 5.0625 4.8125 C4.75 7.5625 4.75 7.5625 4.0625 9.8125 C3.0725 8.8225 2.0825 7.8325 1.0625 6.8125 C0.4025 7.4725 -0.2575 8.1325 -0.9375 8.8125 C-1.2675 7.4925 -1.5975 6.1725 -1.9375 4.8125 C-2.5975 6.4625 -3.2575 8.1125 -3.9375 9.8125 C-5.0625 8.125 -5.0625 8.125 -5.9375 5.8125 C-5.1875 3.125 -5.1875 3.125 -3.9375 0.8125 C-1.9375 -0.1875 -1.9375 -0.1875 0 0 Z " fill="#F4B701" transform="translate(240.9375,260.1875)"/>
<path d="M0 0 C3 1 3 1 4.1328125 3.21484375 C4.62394531 4.56255859 4.62394531 4.56255859 5.125 5.9375 C5.45757812 6.83339844 5.79015625 7.72929687 6.1328125 8.65234375 C6.41898437 9.42707031 6.70515625 10.20179688 7 11 C7.33 11.66 7.66 12.32 8 13 C7.01 12.67 6.02 12.34 5 12 C3.8125 8.9375 3.8125 8.9375 3 6 C1.35 7.32 -0.3 8.64 -2 10 C-2.25 3.375 -2.25 3.375 0 0 Z " fill="#F09A02" transform="translate(317,231)"/>
<path d="M0 0 C2.31 0 4.62 0 7 0 C7.33 0.66 7.66 1.32 8 2 C6.02 2.33 4.04 2.66 2 3 C1.67 12.57 1.34 22.14 1 32 C0.67 32 0.34 32 0 32 C0 21.44 0 10.88 0 0 Z " fill="#FD3A11" transform="translate(616,679)"/>
<path d="M0 0 C0.99 0 1.98 0 3 0 C3.625 2.3125 3.625 2.3125 4 5 C1.97958823 8.03061766 1.24314437 8.72239767 -2 10 C-2.99 10 -3.98 10 -5 10 C-3.35 6.7 -1.7 3.4 0 0 Z " fill="#F2D702" transform="translate(191,375)"/>
<path d="M0 0 C0.33 0 0.66 0 1 0 C1 3.63 1 7.26 1 11 C4.63 11 8.26 11 12 11 C12.33 11.66 12.66 12.32 13 13 C8.38 13 3.76 13 -1 13 C-0.67 8.71 -0.34 4.42 0 0 Z " fill="#050532" transform="translate(581,749)"/>
<path d="M0 0 C0.33 0.99 0.66 1.98 1 3 C1.66 3 2.32 3 3 3 C2.67 4.98 2.34 6.96 2 9 C0.68 9 -0.64 9 -2 9 C-2.66 6.36 -3.32 3.72 -4 1 C-3.01 1 -2.02 1 -1 1 C-0.67 0.67 -0.34 0.34 0 0 Z " fill="#FCF301" transform="translate(192,407)"/>
<path d="M0 0 C1.82724609 0.10828125 1.82724609 0.10828125 3.69140625 0.21875 C5.3150981 0.31260502 6.93879636 0.40634913 8.5625 0.5 C9.36236328 0.54769531 10.16222656 0.59539063 10.98632812 0.64453125 C15.66718977 0.91200906 20.31158379 1.05034541 25 1 C25 1.66 25 2.32 25 3 C20.57100026 4.47633325 16.53005996 3.66059482 11.9375 3.1875 C11.01388672 3.10435547 10.09027344 3.02121094 9.13867188 2.93554688 C8.25630859 2.84724609 7.37394531 2.75894531 6.46484375 2.66796875 C5.656521 2.58828857 4.84819824 2.5086084 4.01538086 2.42651367 C2 2 2 2 0 0 Z " fill="#090532" transform="translate(410,802)"/>
<path d="M0 0 C5.875 1.875 5.875 1.875 7 3 C7.07258946 5.18639453 7.08373783 7.37500389 7.0625 9.5625 C7.05347656 10.76003906 7.04445313 11.95757813 7.03515625 13.19140625 C7.02355469 14.11824219 7.01195312 15.04507813 7 16 C4.75393573 14.22555028 4.04918998 13.41647515 3.70703125 10.51953125 C3.74183594 9.62621094 3.77664063 8.73289062 3.8125 7.8125 C3.83957031 6.91144531 3.86664062 6.01039063 3.89453125 5.08203125 C3.92933594 4.39496094 3.96414063 3.70789063 4 3 C2.68 2.34 1.36 1.68 0 1 C0 0.67 0 0.34 0 0 Z " fill="#24082B" transform="translate(659,688)"/>
<path d="M0 0 C2.64 0 5.28 0 8 0 C8 0.99 8 1.98 8 3 C6.35 3 4.7 3 3 3 C2.67 3.99 2.34 4.98 2 6 C1.34 6 0.68 6 0 6 C0 4.02 0 2.04 0 0 Z " fill="#25082C" transform="translate(580,769)"/>
<path d="M0 0 C2.51699845 2.51699845 3.10964078 4.57554146 4 8 C3.625 10.375 3.625 10.375 3 12 C2.34 10.35 1.68 8.7 1 7 C0.01 7.66 -0.98 8.32 -2 9 C-1.125 2.25 -1.125 2.25 0 0 Z " fill="#1A071B" transform="translate(637,464)"/>
<path d="M0 0 C0.66 0.33 1.32 0.66 2 1 C-0.2146605 5.5523577 -2.41479508 6.99397285 -7 9 C-7.99 9.66 -8.98 10.32 -10 11 C-10 10.01 -10 9.02 -10 8 C-7.8125 5.95703125 -7.8125 5.95703125 -5 3.8125 C-4.071875 3.09707031 -3.14375 2.38164063 -2.1875 1.64453125 C-1.1046875 0.83048828 -1.1046875 0.83048828 0 0 Z " fill="#F0BB02" transform="translate(175,573)"/>
<path d="M0 0 C0.33 0.99 0.66 1.98 1 3 C-0.98 4.98 -2.96 6.96 -5 9 C-5.66 8.67 -6.32 8.34 -7 8 C-5.50902342 4.2047869 -3.24299151 2.38957269 0 0 Z " fill="#F7CA02" transform="translate(164,582)"/>
<path d="M0 0 C1 3 1 3 0.07421875 5.2265625 C-0.38339844 6.01804687 -0.84101563 6.80953125 -1.3125 7.625 C-1.98732422 8.81996094 -1.98732422 8.81996094 -2.67578125 10.0390625 C-4 12 -4 12 -6 13 C-4.89169747 7.55084591 -3.89985574 4.15984612 0 0 Z " fill="#FBB701" transform="translate(234,273)"/>
<path d="M0 0 C0 3 0 3 -1.75 4.82421875 C-2.4925 5.43910156 -3.235 6.05398438 -4 6.6875 C-4.7425 7.31011719 -5.485 7.93273437 -6.25 8.57421875 C-6.8275 9.04472656 -7.405 9.51523437 -8 10 C-8.33 9.01 -8.66 8.02 -9 7 C-8.34 6.38125 -7.68 5.7625 -7 5.125 C-4.7715451 3.24362573 -4.7715451 3.24362573 -5 1 C-3.35 0.67 -1.7 0.34 0 0 Z " fill="#FDF400" transform="translate(269,337)"/>
<path d="M0 0 C1.22589844 0.01353516 1.22589844 0.01353516 2.4765625 0.02734375 C3.41628906 0.04474609 3.41628906 0.04474609 4.375 0.0625 C5.035 1.3825 5.695 2.7025 6.375 4.0625 C5.385 3.4025 4.395 2.7425 3.375 2.0625 C1.07785813 2.03610171 1.07785813 2.03610171 -1.3125 2.4375 C-2.52486328 2.60378906 -2.52486328 2.60378906 -3.76171875 2.7734375 C-4.37660156 2.86882813 -4.99148438 2.96421875 -5.625 3.0625 C-5.955 2.4025 -6.285 1.7425 -6.625 1.0625 C-4.21954362 -0.14022819 -2.67503047 -0.03821472 0 0 Z " fill="#09052D" transform="translate(751.625,687.9375)"/>
<path d="M0 0 C2.54384726 1.27192363 2.69368156 2.19948469 3.6875 4.8125 C3.95949219 5.49957031 4.23148438 6.18664062 4.51171875 6.89453125 C5.06812731 9.29376496 4.77364938 10.6894364 4 13 C1.97944157 8.60748167 0.59104765 4.84659077 0 0 Z " fill="#00B9AF" transform="translate(662,438)"/>
<path d="M0 0 C2 2 2 2 2.1953125 4.3828125 C2.17210937 5.28773438 2.14890625 6.19265625 2.125 7.125 C2.10695313 8.03507813 2.08890625 8.94515625 2.0703125 9.8828125 C2.03550781 10.93082031 2.03550781 10.93082031 2 12 C1.67 12 1.34 12 1 12 C0.67 10.35 0.34 8.7 0 7 C-0.33 7 -0.66 7 -1 7 C-0.67 4.69 -0.34 2.38 0 0 Z " fill="#C3241A" transform="translate(606,693)"/>
<path d="M0 0 C0.99 0.33 1.98 0.66 3 1 C3.33 2.65 3.66 4.3 4 6 C2.35 5.67 0.7 5.34 -1 5 C-0.67 3.35 -0.34 1.7 0 0 Z " fill="#EC8F05" transform="translate(294,365)"/>
<path d="M0 0 C0 4.38968456 -2.12805101 5.76905739 -5 9 C-5.66 8.34 -6.32 7.68 -7 7 C-4.69 4.69 -2.38 2.38 0 0 Z " fill="#D52464" transform="translate(373,350)"/>
<path d="M0 0 C0.66 0 1.32 0 2 0 C2 3.63 2 7.26 2 11 C1.67 11 1.34 11 1 11 C0.63890458 9.35567294 0.28629924 7.7094792 -0.0625 6.0625 C-0.25972656 5.14597656 -0.45695312 4.22945312 -0.66015625 3.28515625 C-0.77230469 2.53105469 -0.88445312 1.77695312 -1 1 C-0.67 0.67 -0.34 0.34 0 0 Z " fill="#270D2C" transform="translate(397,692)"/>
<path d="M0 0 C0.99 0.33 1.98 0.66 3 1 C2.67 2.65 2.34 4.3 2 6 C1.01 5.67 0.02 5.34 -1 5 C-0.67 3.35 -0.34 1.7 0 0 Z " fill="#F9AA01" transform="translate(293,399)"/>
<path d="M0 0 C0.33 0.99 0.66 1.98 1 3 C-1.31 4.98 -3.62 6.96 -6 9 C-4.25618453 5.51236907 -2.47193291 2.96631949 0 0 Z " fill="#090724" transform="translate(394,424)"/>
<path d="M0 0 C0.66 1.32 1.32 2.64 2 4 C1.01 4.66 0.02 5.32 -1 6 C-1.66 6.99 -2.32 7.98 -3 9 C-2.5020163 5.26512223 -2.12508244 3.18762365 0 0 Z " fill="#0A0531" transform="translate(325,280)"/>
<path d="M0 0 C1.485 0.99 1.485 0.99 3 2 C3.1875 4.625 3.1875 4.625 3 7 C2.34 6.34 1.68 5.68 1 5 C0.34 5.66 -0.32 6.32 -1 7 C-0.67 4.69 -0.34 2.38 0 0 Z " fill="#FCAA01" transform="translate(241,262)"/>
<path d="M0 0 C0 3 0 3 -1.875 5.1875 C-4 7 -4 7 -6 7 C-4.60667426 3.63279613 -3.0210714 2.0140476 0 0 Z " fill="#E4296B" transform="translate(423,300)"/>
</svg>
